# xmcd
#
# Track frame offsets:
# 150
# 16305
# 30362
# 53172
# 67135
# 82577
# 101508
# 121938
# 140305
# 157557
# 172184
# 188648
# 204852
# 222088
#
# Disc length: 3188 seconds
#
#
# Revision: 2
# Processed by: cddbd v1.5.2PL0 Copyright (c) Steve Scherf et al.
# Submitted via: FreeRIP 2.95 
#
DISCID=a70c720e
DTITLE=Ana Carolina - Perfil
DYEAR=2005
DGENRE=Acoustic
TTITLE0=Garganta
TTITLE1=Tô Saindo
TTITLE2=Quem de Nós Dois
TTITLE3=Ela é Bamba
TTITLE4=Confesso
TTITLE5=Encostar na Rua
TTITLE6=Uma Louca Tempestade
TTITLE7=Nua
TTITLE8=Pra Rua me Levar
TTITLE9=Elevador
TTITLE10=Nada prá Mim
TTITLE11=Que se Danem os Nós
TTITLE12=O Avesso dos Ponteiros
TTITLE13=Beatriz
EXTD=
EXTT0=
EXTT1=
EXTT2=
EXTT3=
EXTT4=
EXTT5=
EXTT6=
EXTT7=
EXTT8=
EXTT9=
EXTT10=
EXTT11=
EXTT12=
EXTT13=
PLAYORDER=
